<?xml version="1.0" encoding="UTF-8"?>
<svg xmlns="http://www.w3.org/2000/svg" style="display: none;">
  <symbol id="custom-topics" viewBox="0 0 20 20">
    <path d="M7.29167 3.125L5.625 16.875M14.375 3.125L12.7083 16.875M3.125 6.45833H16.875M16.875 13.5417H3.125" stroke="currentColor" fill="none" stroke-width="1.25" stroke-linecap="round" stroke-linejoin="round"/>
  </symbol>
  <symbol id="custom-messages" viewBox="0 0 20 20">
    <path fill-rule="evenodd" clip-rule="evenodd" d="M16.043 2.5C17.3086 2.5 18.3347 3.52602 18.3347 4.79167V10.2083C18.3347 11.474 17.3086 12.5 16.043 12.5H15.0013V13.5417C15.0013 14.8073 13.9753 15.8333 12.7097 15.8333H8.91326L5.30484 17.838C5.11125 17.9456 4.87521 17.9427 4.68435 17.8303C4.49349 17.718 4.3763 17.5131 4.3763 17.2917V15.8333H3.95964C2.69399 15.8333 1.66797 14.8073 1.66797 13.5417V8.125C1.66797 6.85935 2.69399 5.83333 3.95964 5.83333H5.20964V4.79167C5.20964 3.52602 6.23565 2.5 7.5013 2.5H16.043ZM6.45964 5.83333H12.7097C13.9753 5.83333 15.0013 6.85935 15.0013 8.125V11.25H16.043C16.6183 11.25 17.0847 10.7837 17.0847 10.2083V4.79167C17.0847 4.21637 16.6183 3.75 16.043 3.75H7.5013C6.92601 3.75 6.45964 4.21637 6.45964 4.79167V5.83333Z" fill="currentColor"/>
  </symbol>
  <symbol id="custom-my-posts" viewBox="0 0 20 20">
    <path fill-rule="evenodd" clip-rule="evenodd" d="M2.5 4.79167C2.5 3.52602 3.52602 2.5 4.79167 2.5H15.2083C16.474 2.5 17.5 3.52602 17.5 4.79167V15.2083C17.5 16.474 16.474 17.5 15.2083 17.5H4.79167C3.52602 17.5 2.5 16.474 2.5 15.2083V4.79167ZM5.83333 13.5417C5.83333 13.1965 6.11316 12.9167 6.45833 12.9167H13.5417C13.8868 12.9167 14.1667 13.1965 14.1667 13.5417C14.1667 13.8868 13.8868 14.1667 13.5417 14.1667H6.45833C6.11316 14.1667 5.83333 13.8868 5.83333 13.5417ZM6.45833 5.83333C6.11316 5.83333 5.83333 6.11316 5.83333 6.45833V7.70833C5.83333 8.05351 6.11316 8.33333 6.45833 8.33333H7.70833C8.05351 8.33333 8.33333 8.05351 8.33333 7.70833V6.45833C8.33333 6.11316 8.05351 5.83333 7.70833 5.83333H6.45833Z" fill="currentColor"/>
  </symbol>
  <symbol id="custom-review" viewBox="0 0 20 20">
    <path d="M9.6219 13.1125C7.8802 12.6262 6.31835 12.2524 4.58398 12.9717V17.7084C4.58398 18.0536 4.30416 18.3334 3.95898 18.3334C3.61381 18.3334 3.33398 18.0536 3.33398 17.7084V3.66601C3.33398 3.12194 3.64368 2.57791 4.20269 2.3562C6.27461 1.53447 8.13809 1.98279 9.81182 2.44656C9.92157 2.47697 10.0304 2.50737 10.1384 2.53753C11.7202 2.97945 13.1174 3.36983 14.6375 3.00148C15.5313 2.78488 16.6673 3.36993 16.6673 4.48937V12.0517C16.6673 12.5957 16.3577 13.1398 15.7987 13.3615C13.6037 14.2321 11.6287 13.6767 9.87265 13.1828C9.78857 13.1592 9.70498 13.1357 9.6219 13.1125Z" fill="currentColor"/>
  </symbol>
  <symbol id="custom-admin" viewBox="0 0 20 20">
    <path d="M18.3328 7.91699C18.3328 11.3687 15.5345 14.167 12.0828 14.167C11.2218 14.167 10.4014 13.9929 9.65509 13.678L5.49188 17.8412C4.75965 18.5734 3.57247 18.5734 2.84023 17.8412L2.15855 17.1595C1.42632 16.4272 1.42632 15.2401 2.15855 14.5078L6.32172 10.3447C6.00682 9.59833 5.83272 8.77799 5.83272 7.91699C5.83272 4.46521 8.63092 1.66699 12.0828 1.66699C12.8692 1.66699 13.6217 1.81225 14.3149 2.0774C14.7046 2.22644 14.7771 2.72266 14.4821 3.01766L11.6661 5.83366C10.9757 6.52402 10.9757 7.6433 11.6661 8.33366C12.3564 9.02399 13.4757 9.02399 14.1661 8.33366L16.9821 5.51766C17.2771 5.22266 17.7733 5.29512 17.9223 5.68478C18.1875 6.37801 18.3328 7.13054 18.3328 7.91699Z" fill="currentColor"/>
  </symbol>
  <symbol id="custom-invite" viewBox="0 0 20 20">
    <path d="M1.22287 5.04831C0.220621 4.15742 0.850774 2.5 2.19173 2.5H17.732C18.8512 2.5 19.5533 3.70856 18.9988 4.68076L11.377 18.0462C10.7199 19.1983 8.99076 18.9463 8.68984 17.6546L6.97106 10.2763L12.4783 7.21285C12.78 7.04506 12.8885 6.6645 12.7208 6.36285C12.5529 6.0612 12.1723 5.95268 11.8708 6.12048L6.06327 9.35092L1.22287 5.04831Z" fill="currentColor"/>
  </symbol>
</svg>
